<svg xmlns="http://www.w3.org/2000/svg" xml:space="preserve" enable-background="new 0 0 100 100" version="1.0" viewBox="0 0 100 100" id="dataflow">
  <g id="dataflow-2">
    <path d="M83.333,41.667c4.594,0,8.333-3.737,8.333-8.333V25c0-4.596-3.739-8.333-8.333-8.333H16.667
		c-4.596,0-8.333,3.737-8.333,8.333v8.333c0,4.596,3.737,8.333,8.333,8.333h29.167v4.167H25c-4.596,0-8.333,3.737-8.333,8.333v4.167
		c-4.596,0-8.333,3.739-8.333,8.333V75c0,4.594,3.737,8.333,8.333,8.333H25c4.596,0,8.333-3.739,8.333-8.333v-8.333
		c0-4.594-3.737-8.333-8.333-8.333v-4.167h20.833v4.167c-4.596,0-8.333,3.739-8.333,8.333V75c0,4.594,3.737,8.333,8.333,8.333h8.333
		c4.594,0,8.333-3.739,8.333-8.333v-8.333c0-4.594-3.739-8.333-8.333-8.333v-4.167H75v4.167c-4.594,0-8.333,3.739-8.333,8.333V75
		c0,4.594,3.739,8.333,8.333,8.333h8.333c4.594,0,8.333-3.739,8.333-8.333v-8.333c0-4.594-3.739-8.333-8.333-8.333v-4.167
		c0-4.596-3.739-8.333-8.333-8.333H54.167v-4.167H83.333z M25,75h-8.333v-8.333H25V75z M54.167,75h-8.333v-8.333h8.333V75z
		 M83.333,75H75v-8.333h8.333V75z M16.667,25h66.667l0.004,8.333H16.667V25z"></path>
  </g>
</svg>
